    <svg
      width="max-width"
      height="auto"
      version="1.1"
      viewBox="0 0 200 200"
      xmlns="http://www.w3.org/2000/svg"
      xmlnsXlink="http://www.w3.org/1999/xlink"
    >
      <g>
        <path d="m630 52.312v-52.312h-52.312v44.723h-37.32v-44.723h-380.86v44.723h-37.32v-44.723h-52v52.312h44.723v37.32h-44.723v380.86h44.723v37.32h-44.723v52h52.312v-44.535h37.32v44.535h380.67v-44.598h37.32v44.598h52.188v-52.188h-44.723v-37.32h44.723v-380.8h-44.723v-37.32zm-44.723-7.5898v-37.32h37.32v37.32zm-470.49 470.55v37.32h-37.32v-37.32zm425.71-462.96h37.32v37.32h-37.32zm-44.723-44.723h37.32v37.32h-37.32zm-328.67 0h37.32v37.32h-37.32zm-44.723 44.723h37.32v37.32h-37.32zm-44.785-7.5898v-37.32h37.32v37.32zm0 52.312h37.32v37.32h-37.32zm37.32 365.81h-37.32v-37.32h37.32zm44.723 44.723h-37.32v-37.32h37.32zm44.723 44.723h-37.32v-37.32h37.32zm328.67 0h-37.32v-37.32h37.32zm44.723-44.723h-37.32v-37.32h37.32zm44.723 7.5898v37.32h-37.32v-37.32zm0-52.312h-37.32v-37.32h37.32zm0-44.723-44.785-0.003906v44.723h-44.785v44.723h-44.723v44.723h-276.36v-44.66h-44.723v-44.723h-44.723v-44.723h-44.785v-276.36h44.723v-44.723h44.723v-44.785h44.723v-44.723h276.42v44.723h44.723v44.723h44.723v44.785h44.723zm0-321.09v37.32h-37.32v-37.32z" />
      </g>
    </svg>