<?xml version="1.0" encoding="UTF-8"?>
<svg width="700pt" height="700pt" version="1.1" viewBox="0 0 700 700" xmlns="http://www.w3.org/2000/svg" xmlns:xlink="http://www.w3.org/1999/xlink">
 <defs>
  <symbol id="t" overflow="visible">
   <path d="m20.828-1.25c-1.0742 0.5625-2.1953 0.98438-3.3594 1.2656-1.1562 0.28125-2.3711 0.42188-3.6406 0.42188-3.7734 0-6.7617-1.0508-8.9688-3.1562-2.2109-2.1133-3.3125-4.9766-3.3125-8.5938 0-3.625 1.1016-6.4883 3.3125-8.5938 2.207-2.1133 5.1953-3.1719 8.9688-3.1719 1.2695 0 2.4844 0.14062 3.6406 0.42188 1.1641 0.28125 2.2852 0.70312 3.3594 1.2656v4.6875c-1.0859-0.73828-2.1523-1.2812-3.2031-1.625-1.0547-0.34375-2.1641-0.51562-3.3281-0.51562-2.0859 0-3.7266 0.67188-4.9219 2.0156-1.1875 1.3359-1.7812 3.1719-1.7812 5.5156s0.59375 4.1836 1.7812 5.5156c1.1953 1.3359 2.8359 2 4.9219 2 1.1641 0 2.2734-0.17188 3.3281-0.51562 1.0508-0.34375 2.1172-0.88281 3.2031-1.625z"/>
  </symbol>
  <symbol id="d" overflow="visible">
   <path d="m15.25-12.375c-0.48047-0.21875-0.95312-0.37891-1.4219-0.48438-0.46875-0.11328-0.94531-0.17188-1.4219-0.17188-1.3984 0-2.4766 0.44922-3.2344 1.3438-0.75 0.89844-1.125 2.1836-1.125 3.8594v7.8281h-5.4375v-17h5.4375v2.7969c0.69531-1.1133 1.5-1.9258 2.4062-2.4375 0.90625-0.51953 1.9883-0.78125 3.25-0.78125 0.1875 0 0.38281 0.011719 0.59375 0.03125 0.21875 0.011719 0.53125 0.042969 0.9375 0.09375z"/>
  </symbol>
  <symbol id="a" overflow="visible">
   <path d="m19.578-8.5469v1.5469h-12.703c0.13281 1.2734 0.59375 2.2305 1.375 2.875 0.78906 0.63672 1.8945 0.95312 3.3125 0.95312 1.1445 0 2.3164-0.16406 3.5156-0.5 1.207-0.34375 2.4414-0.85938 3.7031-1.5469v4.1875c-1.2812 0.49219-2.5703 0.85547-3.8594 1.0938-1.2812 0.25-2.5703 0.375-3.8594 0.375-3.0742 0-5.4648-0.78125-7.1719-2.3438-1.6992-1.5625-2.5469-3.7539-2.5469-6.5781 0-2.7695 0.83203-4.9531 2.5-6.5469 1.6758-1.5938 3.9844-2.3906 6.9219-2.3906 2.6641 0 4.8008 0.80859 6.4062 2.4219 1.6016 1.6055 2.4062 3.7578 2.4062 6.4531zm-5.5781-1.8125c0-1.0312-0.30469-1.8594-0.90625-2.4844-0.60547-0.63281-1.3906-0.95312-2.3594-0.95312-1.0547 0-1.9062 0.29688-2.5625 0.89062-0.65625 0.58594-1.0703 1.4336-1.2344 2.5469z"/>
  </symbol>
  <symbol id="f" overflow="visible">
   <path d="m10.234-7.6562c-1.1367 0-1.9922 0.19531-2.5625 0.57812-0.57422 0.38672-0.85938 0.95312-0.85938 1.7031 0 0.6875 0.22656 1.2305 0.6875 1.625 0.46875 0.38672 1.1094 0.57812 1.9219 0.57812 1.0312 0 1.8945-0.36328 2.5938-1.0938 0.69531-0.73828 1.0469-1.6602 1.0469-2.7656v-0.625zm8.2969-2.0469v9.7031h-5.4688v-2.5156c-0.73047 1.0312-1.5547 1.7812-2.4688 2.25-0.90625 0.46875-2.0156 0.70312-3.3281 0.70312-1.7617 0-3.1875-0.50781-4.2812-1.5312-1.0938-1.0312-1.6406-2.3633-1.6406-4 0-2 0.67969-3.4609 2.0469-4.3906 1.375-0.9375 3.5312-1.4062 6.4688-1.4062h3.2031v-0.42188c0-0.85156-0.34375-1.4766-1.0312-1.875-0.67969-0.40625-1.7344-0.60938-3.1719-0.60938-1.1562 0-2.2422 0.11719-3.25 0.34375-1 0.23047-1.9297 0.57812-2.7812 1.0469v-4.1406c1.1562-0.28125 2.3203-0.49219 3.5-0.64062 1.1758-0.15625 2.3516-0.23438 3.5312-0.23438 3.0625 0 5.2695 0.60938 6.625 1.8281 1.3633 1.2109 2.0469 3.1719 2.0469 5.8906z"/>
  </symbol>
  <symbol id="c" overflow="visible">
   <path d="m8.5469-21.828v4.8281h5.6094v3.875h-5.6094v7.2188c0 0.79297 0.15625 1.3281 0.46875 1.6094 0.3125 0.27344 0.9375 0.40625 1.875 0.40625h2.7812v3.8906h-4.6562c-2.1484 0-3.668-0.44531-4.5625-1.3438-0.89844-0.89453-1.3438-2.4141-1.3438-4.5625v-7.2188h-2.7031v-3.875h2.7031v-4.8281z"/>
  </symbol>
  <symbol id="j" overflow="visible">
   <path d="m14.188-14.516v-9.1094h5.4531v23.625h-5.4531v-2.4531c-0.75 1-1.5781 1.7344-2.4844 2.2031-0.89844 0.45703-1.9375 0.6875-3.125 0.6875-2.0938 0-3.8203-0.83203-5.1719-2.5-1.3438-1.6641-2.0156-3.8047-2.0156-6.4219 0-2.625 0.67188-4.7695 2.0156-6.4375 1.3516-1.6641 3.0781-2.5 5.1719-2.5 1.1758 0 2.2188 0.24219 3.125 0.71875 0.90625 0.46875 1.7344 1.1992 2.4844 2.1875zm-3.5938 11.016c1.1641 0 2.0547-0.42578 2.6719-1.2812 0.61328-0.85156 0.92188-2.0859 0.92188-3.7031 0-1.625-0.30859-2.8594-0.92188-3.7031-0.61719-0.85156-1.5078-1.2812-2.6719-1.2812-1.1562 0-2.043 0.42969-2.6562 1.2812-0.60547 0.84375-0.90625 2.0781-0.90625 3.7031 0 1.6172 0.30078 2.8516 0.90625 3.7031 0.61328 0.85547 1.5 1.2812 2.6562 1.2812z"/>
  </symbol>
  <symbol id="i" overflow="visible">
   <path d="m11.656-3.5c1.1641 0 2.0547-0.42578 2.6719-1.2812 0.61328-0.85156 0.92188-2.0859 0.92188-3.7031 0-1.625-0.30859-2.8594-0.92188-3.7031-0.61719-0.85156-1.5078-1.2812-2.6719-1.2812-1.1562 0-2.0469 0.42969-2.6719 1.2812-0.625 0.85547-0.9375 2.0898-0.9375 3.7031 0 1.6055 0.3125 2.8398 0.9375 3.7031 0.625 0.85547 1.5156 1.2812 2.6719 1.2812zm-3.6094-11.016c0.75-0.98828 1.5781-1.7188 2.4844-2.1875 0.91406-0.47656 1.9609-0.71875 3.1406-0.71875 2.1016 0 3.8281 0.83594 5.1719 2.5 1.3438 1.668 2.0156 3.8125 2.0156 6.4375 0 2.6172-0.67188 4.7578-2.0156 6.4219-1.3438 1.668-3.0703 2.5-5.1719 2.5-1.1797 0-2.2266-0.23438-3.1406-0.70312-0.90625-0.46875-1.7344-1.1953-2.4844-2.1875v2.4531h-5.4375v-23.625h5.4375z"/>
  </symbol>
  <symbol id="h" overflow="visible">
   <path d="m0.375-17h5.4375l4.5781 11.531 3.875-11.531h5.4375l-7.1406 18.609c-0.71875 1.8945-1.5586 3.2188-2.5156 3.9688-0.96094 0.75-2.2266 1.125-3.7969 1.125h-3.1406v-3.5625h1.7031c0.91406 0 1.582-0.14844 2-0.4375 0.42578-0.29297 0.75391-0.82031 0.98438-1.5781l0.15625-0.46875z"/>
  </symbol>
  <symbol id="e" overflow="visible">
   <path d="m16.344-16.469v4.4219c-0.73047-0.5-1.4688-0.86719-2.2188-1.1094-0.74219-0.25-1.5117-0.375-2.3125-0.375-1.5234 0-2.7031 0.44531-3.5469 1.3281-0.84375 0.88672-1.2656 2.125-1.2656 3.7188 0 1.5859 0.42188 2.8203 1.2656 3.7031 0.84375 0.88672 2.0234 1.3281 3.5469 1.3281 0.85156 0 1.6602-0.125 2.4219-0.375 0.75781-0.25 1.4609-0.625 2.1094-1.125v4.4531c-0.84375 0.3125-1.7031 0.54688-2.5781 0.70312s-1.7578 0.23438-2.6406 0.23438c-3.0625 0-5.4609-0.78516-7.1875-2.3594-1.7305-1.5703-2.5938-3.7578-2.5938-6.5625 0-2.8008 0.86328-4.9883 2.5938-6.5625 1.7266-1.582 4.125-2.375 7.1875-2.375 0.89453 0 1.7734 0.085937 2.6406 0.25 0.86328 0.15625 1.7227 0.39062 2.5781 0.70312z"/>
  </symbol>
  <symbol id="b" overflow="visible">
   <path d="m10.703-13.531c-1.2109 0-2.1328 0.43359-2.7656 1.2969-0.625 0.86719-0.9375 2.1172-0.9375 3.75 0 1.625 0.3125 2.8711 0.9375 3.7344 0.63281 0.86719 1.5547 1.2969 2.7656 1.2969 1.1875 0 2.0938-0.42969 2.7188-1.2969 0.625-0.86328 0.9375-2.1094 0.9375-3.7344 0-1.6328-0.3125-2.8828-0.9375-3.75-0.625-0.86328-1.5312-1.2969-2.7188-1.2969zm0-3.8906c2.9258 0 5.2109 0.79297 6.8594 2.375 1.6445 1.5859 2.4688 3.7734 2.4688 6.5625 0 2.793-0.82422 4.9805-2.4688 6.5625-1.6484 1.5742-3.9336 2.3594-6.8594 2.3594-2.9375 0-5.2344-0.78516-6.8906-2.3594-1.6484-1.582-2.4688-3.7695-2.4688-6.5625 0-2.7891 0.82031-4.9766 2.4688-6.5625 1.6562-1.582 3.9531-2.375 6.8906-2.375z"/>
  </symbol>
  <symbol id="g" overflow="visible">
   <path d="m18.375-14.188c0.6875-1.0508 1.5039-1.8516 2.4531-2.4062 0.94531-0.55078 1.9844-0.82812 3.1094-0.82812 1.957 0 3.4453 0.60547 4.4688 1.8125 1.0195 1.2109 1.5312 2.9609 1.5312 5.25v10.359h-5.4688v-8.8594c0.007812-0.13281 0.015625-0.26953 0.015625-0.40625 0.007813-0.14453 0.015625-0.35156 0.015625-0.625 0-1.1953-0.17969-2.0664-0.53125-2.6094-0.35547-0.53906-0.92969-0.8125-1.7188-0.8125-1.0312 0-1.8281 0.42969-2.3906 1.2812-0.55469 0.84375-0.83984 2.0742-0.85938 3.6875v8.3438h-5.4688v-8.8594c0-1.8828-0.16406-3.0977-0.48438-3.6406-0.32422-0.53906-0.90234-0.8125-1.7344-0.8125-1.043 0-1.8516 0.42969-2.4219 1.2812-0.5625 0.85547-0.84375 2.0781-0.84375 3.6719v8.3594h-5.4688v-17h5.4688v2.4844c0.66406-0.95703 1.4297-1.6797 2.2969-2.1719 0.86328-0.48828 1.8164-0.73438 2.8594-0.73438 1.1758 0 2.2109 0.28906 3.1094 0.85938 0.90625 0.5625 1.5938 1.3555 2.0625 2.375z"/>
  </symbol>
  <symbol id="s" overflow="visible">
   <path d="m1.7812-17h14.828v3.7969l-8.9531 9.3125h8.9531v3.8906h-15.219v-3.7969l8.9688-9.3281h-8.5781z"/>
  </symbol>
  <symbol id="r" overflow="visible">
   <path d="m2.6094-23.625h5.4375v23.625h-5.4375z"/>
  </symbol>
  <symbol id="q" overflow="visible">
   <path d="m13.797-23.625v3.5625h-3c-0.77344 0-1.3086 0.14062-1.6094 0.42188-0.30469 0.28125-0.45312 0.76562-0.45312 1.4531v1.1875h4.6406v3.875h-4.6406v13.125h-5.4375v-13.125h-2.7031v-3.875h2.7031v-1.1875c0-1.8516 0.51562-3.2227 1.5469-4.1094 1.0312-0.88281 2.6289-1.3281 4.7969-1.3281z"/>
  </symbol>
  <symbol id="p" overflow="visible">
   <path d="m19.703-10.359v10.359h-5.4688v-7.8906c0-1.4883-0.03125-2.5078-0.09375-3.0625-0.0625-0.5625-0.17969-0.97266-0.34375-1.2344-0.21094-0.35156-0.49609-0.62891-0.85938-0.82812-0.36719-0.19531-0.78125-0.29688-1.25-0.29688-1.1367 0-2.0273 0.4375-2.6719 1.3125-0.64844 0.875-0.96875 2.0898-0.96875 3.6406v8.3594h-5.4375v-23.625h5.4375v9.1094c0.82031-0.98828 1.6914-1.7188 2.6094-2.1875 0.92578-0.47656 1.9414-0.71875 3.0469-0.71875 1.9688 0 3.457 0.60547 4.4688 1.8125 1.0195 1.2109 1.5312 2.9609 1.5312 5.25z"/>
  </symbol>
  <symbol id="o" overflow="visible">
   <path d="m2.8594-22.672h6.5156l8.25 15.547v-15.547h5.5469v22.672h-6.5312l-8.25-15.547v15.547h-5.5312z"/>
  </symbol>
  <symbol id="n" overflow="visible">
   <path d="m2.4219-6.625v-10.375h5.4688v1.7031c0 0.91797-0.007813 2.0742-0.015625 3.4688-0.011719 1.3867-0.015625 2.3125-0.015625 2.7812 0 1.3672 0.035156 2.3516 0.10938 2.9531 0.070312 0.60547 0.19141 1.043 0.35938 1.3125 0.22656 0.35547 0.51953 0.63281 0.875 0.82812 0.36328 0.1875 0.78125 0.28125 1.25 0.28125 1.125 0 2.0078-0.42969 2.6562-1.2969 0.65625-0.875 0.98438-2.0859 0.98438-3.6406v-8.3906h5.4375v17h-5.4375v-2.4531c-0.82422 0.99219-1.6953 1.7188-2.6094 2.1875-0.91797 0.46875-1.9297 0.70312-3.0312 0.70312-1.9609 0-3.4531-0.59766-4.4844-1.7969-1.0312-1.207-1.5469-2.9609-1.5469-5.2656z"/>
  </symbol>
  <symbol id="m" overflow="visible">
   <path d="m19.703-10.359v10.359h-5.4688v-7.9219c0-1.4688-0.03125-2.4766-0.09375-3.0312-0.0625-0.5625-0.17969-0.97266-0.34375-1.2344-0.21094-0.35156-0.49609-0.62891-0.85938-0.82812-0.36719-0.19531-0.78125-0.29688-1.25-0.29688-1.1367 0-2.0273 0.4375-2.6719 1.3125-0.64844 0.875-0.96875 2.0898-0.96875 3.6406v8.3594h-5.4375v-17h5.4375v2.4844c0.82031-0.98828 1.6914-1.7188 2.6094-2.1875 0.92578-0.47656 1.9414-0.71875 3.0469-0.71875 1.9688 0 3.457 0.60547 4.4688 1.8125 1.0195 1.2109 1.5312 2.9609 1.5312 5.25z"/>
  </symbol>
  <symbol id="l" overflow="visible">
   <path d="m2.8594-22.672h9.7031c2.8828 0 5.0977 0.64062 6.6406 1.9219 1.5391 1.2812 2.3125 3.1055 2.3125 5.4688 0 2.3867-0.77344 4.2188-2.3125 5.5-1.543 1.2812-3.7578 1.9219-6.6406 1.9219h-3.8594v7.8594h-5.8438zm5.8438 4.2344v6.3438h3.2344c1.1328 0 2.0078-0.27344 2.625-0.82812 0.61328-0.55078 0.92188-1.3359 0.92188-2.3594 0-1.0078-0.30859-1.7852-0.92188-2.3281-0.61719-0.55078-1.4922-0.82812-2.625-0.82812z"/>
  </symbol>
  <symbol id="k" overflow="visible">
   <path d="m2.6094-17h5.4375v16.703c0 2.2695-0.54688 4.0039-1.6406 5.2031-1.0938 1.1953-2.6797 1.7969-4.75 1.7969h-2.6875v-3.5625h0.9375c1.0312 0 1.7383-0.23438 2.125-0.70312 0.38281-0.46094 0.57812-1.3711 0.57812-2.7344zm0-6.625h5.4375v4.4375h-5.4375z"/>
  </symbol>
 </defs>
 <g>
  <path d="m630 52.312v-52.312h-52.312v44.723h-37.32v-44.723h-380.86v44.723h-37.32v-44.723h-52v52.312h44.723v37.32h-44.723v380.86h44.723v37.32h-44.723v52h52.312v-44.535h37.32v44.535h380.67v-44.598h37.32v44.598h52.188v-52.188h-44.723v-37.32h44.723v-380.8h-44.723v-37.32zm-44.723-7.5898v-37.32h37.32v37.32zm-470.49 470.55v37.32h-37.32v-37.32zm425.71-462.96h37.32v37.32h-37.32zm-44.723-44.723h37.32v37.32h-37.32zm-328.67 0h37.32v37.32h-37.32zm-44.723 44.723h37.32v37.32h-37.32zm-44.785-7.5898v-37.32h37.32v37.32zm0 52.312h37.32v37.32h-37.32zm37.32 365.81h-37.32v-37.32h37.32zm44.723 44.723h-37.32v-37.32h37.32zm44.723 44.723h-37.32v-37.32h37.32zm328.67 0h-37.32v-37.32h37.32zm44.723-44.723h-37.32v-37.32h37.32zm44.723 7.5898v37.32h-37.32v-37.32zm0-52.312h-37.32v-37.32h37.32zm0-44.723-44.785-0.003906v44.723h-44.785v44.723h-44.723v44.723h-276.36v-44.66h-44.723v-44.723h-44.723v-44.723h-44.785v-276.36h44.723v-44.723h44.723v-44.785h44.723v-44.723h276.42v44.723h44.723v44.723h44.723v44.785h44.723zm0-321.09v37.32h-37.32v-37.32z"/>
  <use x="70" y="653.300781" xlink:href="#t"/>
  <use x="92.824219" y="653.300781" xlink:href="#d"/>
  <use x="108.164062" y="653.300781" xlink:href="#a"/>
  <use x="129.253906" y="653.300781" xlink:href="#f"/>
  <use x="150.242188" y="653.300781" xlink:href="#c"/>
  <use x="165.109375" y="653.300781" xlink:href="#a"/>
  <use x="186.203125" y="653.300781" xlink:href="#j"/>
  <use x="219.292969" y="653.300781" xlink:href="#i"/>
  <use x="241.554688" y="653.300781" xlink:href="#h"/>
  <use x="272.65625" y="653.300781" xlink:href="#e"/>
  <use x="291.089844" y="653.300781" xlink:href="#b"/>
  <use x="312.457031" y="653.300781" xlink:href="#g"/>
  <use x="344.863281" y="653.300781" xlink:href="#s"/>
  <use x="362.964844" y="653.300781" xlink:href="#a"/>
  <use x="384.058594" y="653.300781" xlink:href="#f"/>
  <use x="405.046875" y="653.300781" xlink:href="#r"/>
  <use x="70" y="684.402344" xlink:href="#q"/>
  <use x="83.53125" y="684.402344" xlink:href="#d"/>
  <use x="98.867188" y="684.402344" xlink:href="#b"/>
  <use x="120.234375" y="684.402344" xlink:href="#g"/>
  <use x="163.46875" y="684.402344" xlink:href="#c"/>
  <use x="178.335938" y="684.402344" xlink:href="#p"/>
  <use x="200.476562" y="684.402344" xlink:href="#a"/>
  <use x="232.398438" y="684.402344" xlink:href="#o"/>
  <use x="258.425781" y="684.402344" xlink:href="#b"/>
  <use x="279.792969" y="684.402344" xlink:href="#n"/>
  <use x="301.933594" y="684.402344" xlink:href="#m"/>
  <use x="334.902344" y="684.402344" xlink:href="#l"/>
  <use x="357.695312" y="684.402344" xlink:href="#d"/>
  <use x="373.035156" y="684.402344" xlink:href="#b"/>
  <use x="394.402344" y="684.402344" xlink:href="#k"/>
  <use x="405.0625" y="684.402344" xlink:href="#a"/>
  <use x="426.15625" y="684.402344" xlink:href="#e"/>
  <use x="444.589844" y="684.402344" xlink:href="#c"/>
 </g>
</svg>
